<?xml version="1.0" encoding="UTF-8" standalone="no"?>
<svg
   height="377.953"
   version="1.1"
   width="321.26"
   id="svg11"
   sodipodi:docname="kids flowers.svg"
   inkscape:version="1.4 (e7c3feb100, 2024-10-09)"
   xmlns:inkscape="http://www.inkscape.org/namespaces/inkscape"
   xmlns:sodipodi="http://sodipodi.sourceforge.net/DTD/sodipodi-0.dtd"
   xmlns="http://www.w3.org/2000/svg"
   xmlns:svg="http://www.w3.org/2000/svg">
  <sodipodi:namedview
     id="namedview3"
     pagecolor="#ffffff"
     bordercolor="#000000"
     borderopacity="0.25"
     inkscape:showpageshadow="2"
     inkscape:pageopacity="0.0"
     inkscape:pagecheckerboard="0"
     inkscape:deskcolor="#d1d1d1"
     inkscape:zoom="2.1140195"
     inkscape:cx="160.59455"
     inkscape:cy="188.9765"
     inkscape:window-width="1920"
     inkscape:window-height="1008"
     inkscape:window-x="0"
     inkscape:window-y="0"
     inkscape:window-maximized="1"
     inkscape:current-layer="g1" />
  <defs
     id="defs3" />
  <g
     id="g1"
     inkscape:groupmode="layer"
     inkscape:label="Flowers"
     transform="matrix(1.6796925,0,0,1.6796925,159.34184,326.46468)">
    <path
       id="path59"
       d="M 0,0 C -1.693,0.259 -3.034,1.061 -4.547,0.418 -4.72,0.344 -4.971,0.415 -5.176,0.463 c -2.902,0.671 -4.653,4.039 -3.468,6.742 0.427,0.974 0.835,2.03 1.529,2.797 1.321,1.46 3.116,1.817 5.033,1.506 2.331,-0.378 4.657,-0.791 6.991,-1.158 0.421,-0.066 0.865,0.017 1.299,0.032 0.028,0.124 0.057,0.249 0.086,0.373 -0.899,0.349 -1.786,0.733 -2.699,1.041 -2.955,0.999 -5.806,2.216 -8.391,3.981 -0.309,0.211 -0.579,0.67 -0.625,1.044 -0.174,1.419 -0.352,2.852 -0.335,4.277 0.027,2.258 2.408,4.049 4.526,3.402 1.663,-0.508 3.297,-1.141 4.885,-1.849 1.96,-0.874 2.853,-2.713 3.44,-4.589 0.549,-1.758 1.732,-2.934 2.952,-4.139 0.166,-0.164 0.457,-0.337 0.658,-0.305 0.975,0.154 1.939,0.376 3.279,0.651 -0.758,0.709 -1.211,1.305 -1.807,1.662 -2.81,1.683 -3.974,4.554 -5.24,7.3 -0.672,1.458 -0.28,3.055 0.452,4.459 0.512,0.982 1.574,1.279 2.518,1.017 1.494,-0.414 3.033,-0.911 4.332,-1.726 1.844,-1.155 2.438,-3.182 2.84,-5.232 0.13,-0.661 0.237,-1.38 0.578,-1.935 0.976,-1.586 0.882,-3.016 -0.26,-4.466 -0.642,-0.817 -0.555,-1.006 0.271,-1.331 0.897,1.657 1.969,3.236 2.623,4.972 0.556,1.479 0.628,3.139 0.918,4.719 0.078,0.422 0.134,0.854 0.264,1.26 0.848,2.643 1.724,3.163 4.46,2.689 0.813,-0.141 1.643,-0.216 2.431,-0.441 0.483,-0.138 1.016,-0.408 1.327,-0.785 1.227,-1.486 1.323,-4.957 0.149,-6.48 -1.179,-1.528 -2.374,-3.068 -3.747,-4.415 -1.144,-1.122 -2.554,-1.971 -3.672,-2.811 0.657,-0.15 2.21,0.132 3.051,1.016 1.919,2.017 3.817,4.071 5.541,6.253 2.04,2.584 4.866,3.009 7.358,0.843 1.049,-0.912 2.066,-1.87 3.027,-2.875 0.715,-0.749 0.782,-1.632 0.24,-2.569 C 39.476,11.66 36.62,8.82 32.264,7.756 30.018,7.208 27.809,6.509 25.599,5.882 c 0.047,-0.024 0.22,-0.14 0.41,-0.209 1.51,-0.553 3.044,-1.044 4.526,-1.661 0.926,-0.386 1.386,-1.126 1.319,-2.227 -0.058,-0.957 0.018,-1.941 0.18,-2.889 0.384,-2.261 -2.879,-4.985 -4.61,-5.061 -0.142,-0.007 -0.29,-0.02 -0.426,0.012 -2.391,0.569 -4.791,1.107 -7.163,1.748 -0.575,0.155 -1.084,0.623 -1.572,1.011 -0.993,0.789 -1.951,1.623 -3.134,2.303 0.811,-2.441 1.622,-4.881 2.513,-7.566 0.613,0.509 1.18,0.909 1.663,1.391 1.419,1.416 3.154,1.875 5.036,1.474 0.655,-0.139 1.499,-0.754 1.715,-1.349 0.804,-2.214 0.869,-3.332 -1.46,-4.366 -1.896,-0.841 -3.715,-1.856 -5.617,-2.681 -0.837,-0.362 -0.58,-0.849 -0.415,-1.377 0.87,-2.793 1.757,-5.582 2.633,-8.373 0.051,-0.163 0.051,-0.342 0.111,-0.781 -0.944,0.207 -1.757,0.386 -2.57,0.565 0.86,0.571 0.741,1.165 0.469,1.895 -0.845,2.264 -1.629,4.55 -2.492,6.984 -0.348,-0.347 -0.564,-0.631 -0.842,-0.827 -0.929,-0.655 -1.814,-1.432 -2.838,-1.883 -2.232,-0.985 -4.15,-0.086 -5.302,2.103 -1.559,2.963 -0.048,4.894 2.972,6.581 1.182,0.66 2.651,0.837 4.011,1.138 0.812,0.18 0.954,0.482 0.677,1.254 -0.723,2.02 -1.325,4.084 -2.068,6.095 -0.16,0.432 -0.705,0.999 -1.089,1.012 -0.815,0.028 -0.774,-0.676 -0.749,-1.341 0.1,-2.704 -0.786,-5.129 -2.147,-7.43 -1.819,-3.074 -4.155,-5.732 -6.56,-8.339 -1.249,-1.354 -2.711,-1.492 -4.243,-0.492 -1.387,0.905 -2.383,2.047 -2.511,3.783 -0.021,0.283 -0.074,0.582 -0.193,0.835 -1.611,3.454 -0.113,6.326 1.705,9.131 C -1.709,-2.493 -0.916,-1.357 0,0 m 1.185,-0.93 c -1.125,-1.593 -2.099,-2.872 -2.964,-4.221 -1.509,-2.353 -2.581,-4.805 -1.31,-7.657 0.17,-0.383 0.226,-0.832 0.262,-1.256 0.125,-1.515 1.139,-2.282 2.406,-2.717 1.17,-0.401 1.9,0.512 2.507,1.26 1.8,2.216 3.595,4.444 5.227,6.783 1.551,2.223 2.528,4.725 2.649,7.483 0.014,0.322 -0.217,0.934 -0.356,0.941 C 8.178,-0.245 6.909,0.804 5.37,0.263 3.945,-0.238 2.46,-0.573 1.185,-0.93 M 35.95,10.857 c 1.255,1.366 2.578,2.677 3.747,4.112 1.175,1.444 0.972,2.715 -0.419,3.946 -0.509,0.45 -1.006,0.914 -1.512,1.368 -1.174,1.056 -2.556,1.217 -3.958,0.518 -1.672,-0.832 -2.417,-2.491 -3.47,-3.863 -2.08,-2.712 -4.002,-5.592 -7.967,-5.637 C 21.805,11.295 21.656,10.907 21.867,10.393 22.165,9.664 22.346,8.85 22.8,8.237 23.123,7.8 23.85,7.339 24.333,7.399 c 1.936,0.241 3.9,0.514 5.754,1.093 1.984,0.62 4.163,0.894 5.863,2.365 M 8.885,1.352 c 0.074,-0.105 0.147,-0.21 0.221,-0.315 0.332,0.214 0.659,0.437 0.999,0.637 0.352,0.208 0.91,0.648 1.045,0.546 0.805,-0.608 1.397,-0.066 2.052,0.221 0.282,0.124 0.568,0.253 0.864,0.327 0.612,0.152 1.312,0.129 1.834,0.426 1.57,0.894 3.132,1.828 4.57,2.913 0.588,0.444 1.181,1.321 1.177,1.998 -0.005,0.861 -0.47,1.819 -0.987,2.56 -1.968,2.817 -5.875,3.592 -9.04,1.867 0.018,-0.122 0.071,-0.264 0.052,-0.395 -0.06,-0.411 -0.147,-0.818 -0.224,-1.227 -0.304,0.227 -0.664,0.406 -0.901,0.689 -0.441,0.525 -0.98,0.528 -1.321,-0.15 C 8.783,10.565 7.399,10.302 7.617,8.993 7.623,8.958 7.521,8.884 7.458,8.862 6.589,8.558 6.679,7.777 6.54,7.087 6.176,5.278 6.914,3.743 7.772,2.131 9.503,3.076 10.97,4.342 12.111,6.032 11.962,3.818 10.203,2.734 8.885,1.352 M 16.033,0.06 c 0.58,-0.531 1.288,-1.311 2.125,-1.911 0.91,-0.652 1.882,-1.308 2.929,-1.655 1.585,-0.525 3.264,-0.763 4.893,-1.161 2.252,-0.55 4.705,1.118 4.804,3.439 C 30.837,0.007 30.585,1.261 30.39,2.494 30.343,2.79 30.024,3.169 29.74,3.28 28.316,3.839 26.895,4.547 25.409,4.764 23.985,4.973 22.481,4.648 21.014,4.539 20.892,4.53 20.785,4.376 20.663,4.303 19.167,3.411 17.705,2.455 16.159,1.66 15.318,1.228 15.268,0.859 16.033,0.06 M -6.559,8.825 C -7.405,7.99 -8.021,6.636 -8.098,5.087 -8.121,4.609 -7.882,3.999 -7.553,3.643 -6.436,2.432 -5.09,1.689 -3.344,2.048 -3.039,2.111 -2.676,2.157 -2.4,2.053 0.247,1.056 2.745,1.626 5.165,2.783 5.463,2.925 5.757,3.471 5.739,3.813 5.661,5.264 5.421,6.705 5.332,8.155 5.297,8.725 5.173,8.981 4.578,9.067 2.31,9.392 0.057,9.837 -2.218,10.093 -3.646,10.254 -5.095,10.126 -6.559,8.825 m 3.012,13.994 c -1.719,-1.093 -1.289,-2.794 -1.008,-4.41 0.09,-0.514 0.383,-1.13 0.785,-1.43 3.017,-2.258 6.47,-3.605 10.079,-4.566 0.553,-0.147 1.224,-0.097 1.781,0.067 0.983,0.288 1.075,0.735 0.284,1.392 -1.018,0.845 -1.572,1.91 -1.892,3.158 -0.14,0.548 -0.354,1.093 -0.628,1.588 -1.513,2.728 -4.061,3.896 -6.949,4.508 -0.816,0.172 -1.686,0.573 -2.452,-0.307 m 22.578,-9.208 c 0.119,-0.118 0.238,-0.235 0.357,-0.353 1.505,0.662 3.269,1.026 4.456,2.055 1.984,1.72 3.615,3.852 5.351,5.849 0.257,0.295 0.369,0.792 0.391,1.203 0.178,3.288 -0.512,4.083 -3.802,4.466 -0.142,0.017 -0.286,0.024 -0.429,0.034 -1.664,0.118 -2.46,-0.315 -2.903,-1.897 -0.393,-1.405 -0.624,-2.864 -0.815,-4.314 -0.19,-1.441 -0.584,-2.762 -1.345,-4.025 -0.557,-0.924 -0.85,-2.006 -1.261,-3.018 m -4.113,11.016 c -1.719,2.047 -3.665,2.37 -5.643,2.457 C 8.869,27.102 8.147,26.507 8.069,26.099 7.9,25.221 7.813,24.189 8.121,23.383 c 1.22,-3.194 3.373,-5.691 6.232,-7.567 0.249,-0.163 0.597,-0.318 0.87,-0.278 1.05,0.154 2.146,2.003 1.833,3.012 -0.401,1.291 -0.776,2.593 -1.222,3.869 -0.315,0.901 -0.731,1.767 -0.916,2.208 m 0.738,-33.313 c -0.315,-0.07 -0.635,-0.108 -0.931,-0.212 -1.078,-0.38 -2.24,-0.63 -3.195,-1.215 -1.039,-0.635 -1.941,-1.531 -2.792,-2.42 -0.692,-0.722 -0.605,-1.618 -0.146,-2.494 0.979,-1.866 1.568,-2.131 3.666,-1.622 1.951,0.473 3.353,1.697 3.695,3.606 0.246,1.371 -0.171,2.861 -0.297,4.357 m 2.219,-4.746 c 0.931,0.409 1.725,0.705 2.469,1.096 1.391,0.732 2.773,1.486 4.12,2.295 0.888,0.534 0.945,1.445 0.59,2.281 -0.191,0.447 -0.747,1.06 -1.119,1.047 -1.006,-0.037 -2.098,-0.179 -2.976,-0.63 -1.13,-0.58 -2.112,-1.469 -3.098,-2.296 -0.282,-0.237 -0.52,-0.735 -0.493,-1.092 0.064,-0.84 0.3,-1.667 0.507,-2.701"
       style="fill:#421d16;fill-opacity:1;fill-rule:nonzero;stroke:none"
       transform="matrix(0.66550194,0,0,-0.66550194,-44.598366,5.8680126)"
       clip-path="url(#clipPath60)" />
    <path
       id="path63"
       d="m 0,0 c -1.3,-0.512 -2.321,-1.116 -3.415,-1.31 -4.841,-0.861 -9.38,-0.156 -13.182,3.205 -2.067,1.827 -4.227,3.649 -5.867,5.832 -1.492,1.986 -2.389,4.434 -3.441,6.727 -0.362,0.79 0.057,1.267 0.986,1.604 3.64,1.323 7.184,0.867 10.752,-0.233 1.66,-0.512 3.351,-0.929 5.075,-1.306 -1.423,1.381 -3.776,1.886 -3.788,4.477 -0.011,2.406 1.698,3.523 3.164,4.592 -1.213,0.284 -2.593,0.395 -3.781,0.932 -2.061,0.933 -2.343,3.029 -2.717,4.981 -0.037,0.194 0.064,0.437 0.157,0.63 2.195,4.535 8.035,6.261 12.319,3.653 0.443,-0.27 0.917,-0.49 1.558,-0.539 -0.792,0.955 -1.58,1.912 -2.375,2.864 -0.339,0.405 -0.713,0.783 -1.033,1.202 -1.507,1.97 -0.821,4.3 1.625,4.71 2.046,0.342 4.231,0.329 6.175,-0.714 2.178,-1.169 3.194,-3.191 3.789,-5.481 0.161,-0.621 0.33,-1.24 0.583,-2.185 0.574,0.95 0.947,1.627 1.379,2.266 0.738,1.092 1.409,2.255 2.292,3.219 2.295,2.505 5.957,2.183 7.587,-0.804 1.749,-3.205 1.335,-6.608 -0.204,-9.756 -0.472,-0.966 -1.876,-1.478 -2.855,-2.2 1.705,-0.706 3.349,-1.943 4.213,-3.918 0.392,-0.899 0.671,-1.926 0.678,-2.897 0.009,-1.443 -0.187,-2.903 -0.443,-4.33 -0.469,-2.614 -2.126,-3.451 -4.776,-3.008 -0.74,0.124 -1.534,0.545 -2.086,1.061 C 10.42,15.098 8.642,17.109 6.63,18.856 6.007,19.396 4.849,19.319 3.763,19.564 2.26,8.221 0.091,-2.751 3.681,-14.097 1.952,-13.463 1.333,-12.463 1.17,-11.211 0.856,-8.812 0.638,-6.4 0.388,-3.993 0.253,-2.688 0.134,-1.382 0,0 m -20.389,15.353 c -1.345,-0.577 -3.308,-0.837 -3.653,-1.726 -0.362,-0.931 0.555,-2.698 1.397,-3.689 1.916,-2.256 3.579,-4.799 6.136,-6.444 1.097,-0.706 2.214,-1.454 3.428,-1.885 1.439,-0.512 2.983,-0.909 4.499,-0.977 1.68,-0.075 3.478,-0.017 5.048,0.509 2.691,0.902 4.568,5.502 2.983,7.305 -1.264,1.437 -2.951,2.8 -4.722,3.43 -3.457,1.229 -7.095,1.966 -10.679,2.817 -1.432,0.34 -2.921,0.442 -4.437,0.66 m 27.686,4.189 c 0.96,-0.657 1.857,-1.144 2.592,-1.81 0.775,-0.7 1.346,-1.621 2.093,-2.359 1.77,-1.748 4.157,-1.118 4.764,1.292 0.309,1.224 0.409,2.507 0.53,3.77 0.286,3.005 -1.146,4.06 -3.875,4.631 -0.863,0.181 -1.927,-0.127 -2.762,-0.511 C 10.301,24.4 10.274,23.453 10.202,22.855 10.054,21.618 9.488,20.716 8.338,20.19 8.035,20.052 7.767,19.839 7.297,19.542 m -8.824,8.325 c 0.821,1.771 0.878,1.832 -0.53,3.145 -3.183,2.967 -7.313,2.83 -9.9,-0.249 -0.48,-0.571 -0.974,-1.137 -1.518,-1.646 -0.822,-0.768 -0.723,-1.594 -0.344,-2.525 0.38,-0.934 1.113,-1.042 1.944,-0.941 0.563,0.068 1.118,0.211 1.674,0.331 2.808,0.608 5.616,1.22 8.674,1.885 m 11.634,0.928 c 0.841,-0.01 1.31,-0.014 1.778,-0.022 2.46,-0.041 3.753,0.914 4.126,3.322 0.234,1.51 0.286,3.07 0.214,4.598 -0.033,0.703 -0.41,1.781 -0.902,1.966 C 14.761,38.87 13.87,38.332 13.176,38.006 12.799,37.83 12.469,37.461 12.227,37.105 11.193,35.584 10.192,34.039 9.193,32.494 8.777,31.85 8.395,31.184 8.027,30.578 c 0.935,-1.085 1.912,-2.221 2.889,-3.356 0.07,0.061 0.141,0.122 0.211,0.183 -0.262,0.356 -0.523,0.712 -1.02,1.39 m -5.64,-7.604 c 1.171,0.137 2.845,0.106 3.442,1.687 0.545,1.443 0.786,3.076 0.777,4.623 C 8.682,28.242 7.937,29.338 7.259,29.615 6.583,29.89 5.489,29.5 4.732,29.107 4.03,28.743 3.604,27.831 2.582,28.471 2.46,28.548 1.972,28.209 1.77,27.965 0.642,26.602 0.357,24.935 0.408,23.26 c 0.017,-0.568 0.696,-1.115 1.017,-1.59 0.665,0.526 1.243,1.195 1.438,1.097 0.539,-0.27 0.919,-0.86 1.604,-1.576 m 0.057,10.315 c -0.116,0.413 -0.356,0.782 -0.277,1.06 0.554,1.939 -0.311,3.643 -0.861,5.38 -0.77,2.429 -2.949,2.958 -5.137,2.476 -1.87,-0.413 -2.442,-2.252 -1.285,-3.711 0.984,-1.241 2.006,-2.456 2.925,-3.743 0.85,-1.188 1.708,-2.121 3.355,-1.44 0.333,0.138 0.781,-0.005 1.28,-0.022 M -6.566,16.431 c 2.268,0.486 3.91,1.842 5.46,3.278 1.188,1.101 1.122,1.463 0.082,2.727 -0.25,0.305 -0.403,0.718 -0.704,0.947 -0.359,0.273 -0.913,0.66 -1.237,0.554 -2.904,-0.948 -5.325,-2.693 -7.393,-4.901 -0.705,-0.752 -0.526,-1.675 0.489,-2.008 1.053,-0.345 2.198,-0.41 3.303,-0.597 m 6.628,-6.38 c 0.466,3.099 0.926,6.164 1.4,9.323 -2.335,-2.968 -4.941,-5.273 -8.519,-4.944 2.191,-1.348 4.658,-2.866 7.119,-4.379"
       style="fill:#421d16;fill-opacity:1;fill-rule:nonzero;stroke:none"
       transform="matrix(0.66550194,0,0,-0.66550194,39.041006,12.936979)"
       clip-path="url(#clipPath64)" />
    <path
       id="path67"
       d="m 0,0 c -0.208,-0.361 -0.287,-0.455 -0.321,-0.563 -0.599,-1.875 -1.234,-2.181 -2.973,-1.23 -2.108,1.153 -4.184,2.368 -6.231,3.624 -3.202,1.963 -4.915,5.209 -6.675,8.307 -0.645,1.137 -0.772,2.897 -0.432,4.187 0.523,1.978 2.756,2.835 5.037,2.379 2.996,-0.6 5.016,-2.531 6.607,-4.99 0.612,-0.945 1.127,-1.953 1.686,-2.933 0.102,0.023 0.204,0.045 0.306,0.068 0.026,0.401 0.105,0.808 0.07,1.204 -0.213,2.392 -0.533,4.778 -0.647,7.175 -0.056,1.174 0.308,2.362 0.387,3.55 0.093,1.393 0.123,2.794 0.088,4.19 -0.008,0.304 -0.344,0.705 -0.638,0.881 -3.833,2.296 -4.358,6.473 -1.166,9.563 0.304,0.294 0.677,0.516 0.943,0.714 -1.537,1.089 -2.945,1.93 -4.165,2.988 -1.812,1.572 -3.65,3.168 -5.154,5.017 -0.705,0.866 -0.904,2.351 -0.89,3.55 0.028,2.359 0.414,4.711 0.564,7.072 0.188,2.953 -1.26,5.515 -2.207,8.164 -0.817,2.284 0.177,3.42 2.25,3.823 1.095,0.213 2.452,0.141 3.427,-0.337 1.555,-0.764 2.919,-1.939 4.304,-3.016 0.479,-0.373 0.783,-0.971 1.166,-1.466 0.168,0.072 0.336,0.144 0.504,0.216 0.049,1.144 0.08,2.29 0.152,3.433 0.062,0.975 -0.031,2.023 0.295,2.909 1.088,2.958 2.309,5.867 3.535,8.772 0.378,0.898 1.427,0.885 2.041,-0.111 0.593,-0.961 1.101,-2.03 1.376,-3.12 0.684,-2.715 1.209,-5.47 1.81,-8.207 0.116,-0.526 0.284,-1.039 0.483,-1.756 0.528,0.348 0.894,0.616 1.285,0.84 0.781,0.448 1.572,0.879 2.367,1.303 0.727,0.387 1.488,0.715 2.192,1.141 1.194,0.723 2.462,0.852 3.76,0.478 1.1,-0.316 1.796,-1.067 1.585,-2.29 -0.366,-2.12 -0.706,-4.253 -1.239,-6.334 -0.86,-3.351 -0.618,-6.726 -0.597,-10.121 0.017,-2.821 -0.234,-5.659 -0.578,-8.463 C 14.123,39.115 13.344,38.715 11.849,38.522 11.4,38.464 10.873,38.198 10.584,37.856 8.899,35.868 6.783,34.676 4.223,34.303 3.518,34.2 3.416,33.878 3.479,33.268 c 0.09,-0.861 0.144,-1.731 0.139,-2.597 -0.02,-3.118 -1.514,-4.937 -4.544,-5.585 -0.19,-0.041 -0.378,-0.091 -0.436,-0.105 -0.215,-2.647 -0.507,-5.216 -0.611,-7.793 -0.105,-2.592 -0.023,-5.191 -0.023,-7.787 0.121,-0.034 0.241,-0.069 0.362,-0.103 0.194,0.139 0.417,0.251 0.578,0.422 2.123,2.242 4.593,3.792 7.584,4.794 2.795,0.937 6.653,-2.868 5.558,-5.587 C 11.32,7.028 10.81,4.871 9.544,3.37 8.26,1.848 6.258,0.86 4.438,-0.113 3.063,-0.848 1.482,-1.44 0,0 m 14.626,66.409 c -0.36,0.051 -0.513,0.094 -0.665,0.088 -0.155,-0.005 -0.322,-0.029 -0.46,-0.095 C 10.87,65.144 8.194,63.817 6.285,61.621 4.019,59.013 2.083,56.101 1.056,52.706 0.931,52.295 0.603,51.945 0.37,51.566 c -0.383,0.3 -0.891,0.524 -1.126,0.913 -1.077,1.783 -1.982,3.676 -3.13,5.409 -1.341,2.024 -2.791,3.989 -4.348,5.851 -1.001,1.196 -2.41,1.928 -4.031,2.006 -1.679,0.08 -2.409,-0.905 -1.871,-2.466 0.488,-1.415 1.026,-2.813 1.51,-4.229 0.774,-2.263 1.211,-4.572 0.84,-6.977 -0.169,-1.091 -0.358,-2.18 -0.493,-3.276 -0.227,-1.845 0.118,-3.606 1.402,-4.965 1.536,-1.627 3.213,-3.128 4.897,-4.606 0.606,-0.532 1.416,-0.828 2.12,-1.253 1.332,-0.805 3.114,-0.609 4.228,-1.915 0.132,-0.156 0.428,-0.203 0.657,-0.241 2.088,-0.344 4.144,-0.283 5.852,1.123 1.264,1.041 2.366,2.278 3.55,3.419 0.218,0.21 0.508,0.346 0.719,0.562 0.411,0.422 1.073,0.84 1.134,1.322 0.32,2.53 0.695,5.082 0.655,7.621 -0.071,4.579 -0.339,9.134 1.335,13.546 0.345,0.908 0.248,1.984 0.356,2.999 M -0.041,54.99 c 1.35,2.336 2.591,4.428 3.761,6.56 0.224,0.409 0.304,1.003 0.212,1.463 -0.717,3.591 -1.485,7.171 -2.26,10.75 -0.074,0.341 -0.301,0.648 -0.621,1.313 -0.46,-1.097 -0.788,-1.839 -1.084,-2.593 -0.416,-1.06 -0.819,-2.125 -1.206,-3.195 -0.279,-0.773 -0.632,-1.541 -0.758,-2.341 -0.324,-2.061 -0.549,-4.138 -0.792,-6.211 -0.04,-0.343 -0.083,-0.76 0.068,-1.038 0.856,-1.578 1.77,-3.124 2.68,-4.708 M -4.655,0.402 c 0,0.286 0.039,0.416 -0.006,0.501 -1.796,3.368 -4.275,6.117 -7.447,8.248 -0.312,0.209 -0.507,0.591 -0.757,0.893 0.397,0.092 0.807,0.292 1.188,0.248 0.408,-0.048 0.84,-0.26 1.17,-0.518 0.932,-0.726 1.909,-1.428 2.7,-2.292 1.715,-1.874 3.325,-3.843 4.929,-5.715 0.493,1.505 -1.905,2.656 -0.906,4.272 -1.094,1.797 -2.126,3.554 -3.219,5.271 -0.982,1.543 -2.128,2.954 -3.838,3.752 -1.846,0.862 -3.894,-0.518 -3.625,-2.522 0.142,-1.061 0.52,-2.142 1.026,-3.089 0.739,-1.386 1.689,-2.659 2.548,-3.981 1.514,-2.33 3.883,-3.576 6.237,-5.068 m 3.445,26.279 c 1.61,-0.118 3.462,1.346 3.738,3.485 0.157,1.223 0.096,2.558 -0.267,3.718 -0.131,0.419 -1.43,0.473 -2.195,0.695 -0.075,0.022 -0.148,0.052 -0.218,0.084 -2.105,0.976 -3.427,0.651 -4.908,-1.205 -1.819,-2.279 -0.718,-5.803 1.778,-6.215 0.304,0.502 0.575,0.949 0.845,1.395 0.376,-0.599 0.751,-1.198 1.227,-1.957 M -0.999,3.803 c 0.275,0.185 0.492,0.29 0.658,0.449 1.991,1.907 3.964,3.833 5.973,5.721 0.253,0.238 0.779,0.495 1.016,0.387 C 7.531,9.959 7.767,8.687 7.084,7.974 6.16,7.01 5.156,6.12 4.159,5.23 2.85,4.062 1.515,2.924 0.049,1.65 0.53,1.461 0.791,1.252 1.011,1.288 c 2.781,0.455 5.222,1.661 6.892,3.93 0.889,1.207 1.32,2.765 1.873,4.198 0.234,0.608 0.337,1.299 0.343,1.954 0.007,0.83 -0.505,1.204 -1.338,1.042 C 4.703,11.618 1.574,9.369 -0.777,6.021 -1.161,5.474 -1.782,4.723 -0.999,3.803"
       style="fill:#421d16;fill-opacity:1;fill-rule:nonzero;stroke:none"
       transform="matrix(0.66550194,0,0,-0.66550194,2.5515224,20.776708)"
       clip-path="url(#clipPath68)" />
  </g>
</svg>
